<?xml version="1.0" encoding="utf-8"?>
<!-- Generator: Adobe Illustrator 17.0.0, SVG Export Plug-In . SVG Version: 6.00 Build 0)  -->
<!DOCTYPE svg PUBLIC "-//W3C//DTD SVG 1.1//EN" "http://www.w3.org/Graphics/SVG/1.1/DTD/svg11.dtd">
<svg version="1.1" id="Layer_1" xmlns="http://www.w3.org/2000/svg" xmlns:xlink="http://www.w3.org/1999/xlink" x="0px" y="0px"
	 width="156.676px" height="49.216px" viewBox="0 0 156.676 49.216" enable-background="new 0 0 156.676 49.216"
	 xml:space="preserve">
<text transform="matrix(1 0 0 1 21.3915 48.3443)" fill="#EE4036" font-family="'Lato-Bold'" font-size="13.8431" letter-spacing="4">NUTRITION</text>
<g>
	<g>
		<polygon fill="#BE1E2D" points="23.926,31.509 37.925,31.509 27.907,1.422 13.583,1.422 		"/>
		<polygon fill="#9E1F63" points="3.029,31.509 17.235,31.509 19.624,24.219 12.416,3.319 		"/>
		<polygon fill="#E02126" points="31.453,12.097 27.907,1.422 13.583,1.422 		"/>
		<polygon fill="#EE4036" points="23.926,31.509 35.065,23.175 19.761,19.041 		"/>
		<polygon fill="#BE1E2D" points="19.761,19.041 31.453,12.097 13.583,1.422 		"/>
		<polygon fill="#E02126" points="35.065,23.175 31.453,12.097 19.761,19.041 		"/>
		<polygon fill="#BE1E2D" points="19.624,24.219 12.416,3.319 8.81,14.46 		"/>
		<polygon fill="#E02126" points="19.624,24.219 8.81,14.46 3.029,31.509 		"/>
		<polygon fill="#BE1E2D" points="17.235,31.509 19.624,24.219 3.029,31.509 		"/>
		<polygon fill="#EE4036" points="17.036,31.528 15.216,26.251 3.037,31.528 		"/>
	</g>
	<g>
		<g>
			<polygon fill="#EC1C24" points="153.332,1.163 140.365,1.163 140.365,1.215 140.365,9.839 153.332,9.839 			"/>
			<rect x="140.365" y="12.039" fill="#EC1C24" width="7.624" height="8.676"/>
			<polygon fill="#EC1C24" points="140.365,22.852 140.365,31.514 153.647,31.528 153.647,22.852 			"/>
			<rect x="124.904" y="1.172" fill="#EE4036" width="14.334" height="30.345"/>
		</g>
		<polygon fill="#EC1C24" points="139.113,21.626 124.904,31.517 139.239,31.517 		"/>
		<polygon fill="#EC1C24" points="139.155,21.626 124.988,20.955 139.155,6.956 		"/>
		<polygon fill="#BE1E2D" points="139.155,6.956 124.904,1.172 124.988,20.955 		"/>
		<polygon fill="#EE4036" points="124.904,1.172 139.239,1.172 139.155,6.956 		"/>
		<polygon fill="#BE1E2D" points="140.365,22.852 153.531,31.266 140.365,31.514 		"/>
		<polygon fill="#EE4036" points="147.16,27.158 153.647,22.852 140.365,22.852 		"/>
		<polygon fill="#EE4036" points="140.365,20.715 147.988,12.039 140.365,12.039 		"/>
		<polygon fill="#BE1E2D" points="144.142,16.428 147.988,20.715 140.365,20.715 		"/>
		<polygon fill="#BE1E2D" points="140.365,9.839 153.332,1.163 140.365,1.163 		"/>
		<polygon fill="#EE4036" points="146.825,5.447 153.332,9.839 140.365,9.839 		"/>
	</g>
	<g>
		<polygon fill="#BE1E2D" points="77.866,31.528 85.354,31.528 85.354,31.049 81.076,28.08 		"/>
		<polygon fill="#EC1C24" points="81.076,28.08 85.354,31.049 85.354,23.759 		"/>
		<polygon fill="#EC1C24" points="72.606,21.828 70.788,23.079 70.788,31.528 77.866,31.528 81.076,28.08 		"/>
		<path fill="#BE1E2D" d="M70.788,1.308v9.536c0.127-0.001,0.266-0.002,0.415-0.003L82.47,1.308H70.788z"/>
		<polygon fill="#EE4036" points="72.606,21.828 81.076,28.08 85.354,23.759 85.354,13.225 		"/>
		<polygon fill="#EC1C24" points="70.788,23.079 72.606,21.828 70.788,20.487 		"/>
		<path fill="#EE4036" d="M85.354,10.825V1.308H82.47l-11.267,9.533C74.65,10.823,83.644,10.819,85.354,10.825z"/>
		<polygon fill="#BE1E2D" points="85.354,10.829 70.788,10.829 70.788,20.487 72.606,21.828 85.354,13.225 		"/>
	</g>
	<g>
		<path fill="#E02126" d="M54.468,31.521c4.406-0.009,9.002-0.006,13.303,0.007l-13.303-6.841V31.521z"/>
		<polygon fill="#EE4036" points="39.54,31.507 39.54,31.528 54.468,31.528 54.468,24.098 48.941,21.255 		"/>
		<path fill="#EE4036" d="M67.799,19.74h-13.33v4.946l13.303,6.841c0.009,0,0.019,0,0.028,0V19.74z"/>
		<polygon fill="#E02126" points="48.941,21.255 54.468,24.098 54.468,15.227 		"/>
		<polygon fill="#E02126" points="39.54,16.42 39.54,31.507 48.941,21.255 		"/>
		<polygon fill="#BE1E2D" points="39.54,1.283 39.54,16.42 48.941,21.255 54.468,15.227 54.468,1.283 		"/>
		<polygon fill="#BE1E2D" points="54.468,24.686 67.771,31.528 67.799,19.74 		"/>
		<polygon fill="#EE4036" points="39.54,1.283 39.54,16.42 54.468,1.283 		"/>
	</g>
	<g>
		<polygon fill="#BE1E2D" points="101.532,1.05 87.554,1.05 97.558,31.528 111.86,31.528 		"/>
		<polygon fill="#EE4036" points="93.97,20.714 97.562,31.528 112.071,31.528 		"/>
		<polygon fill="#BE1E2D" points="105.813,13.68 93.97,20.714 112.071,31.528 		"/>
		<polygon fill="#EE4036" points="101.594,1.05 90.31,9.493 105.813,13.68 		"/>
		<polygon fill="#EC1C24" points="90.31,9.493 93.97,20.714 105.813,13.68 		"/>
		<polygon fill="#EC1C24" points="105.953,8.364 113.254,29.535 116.906,18.25 		"/>
		<polygon fill="#BE1E2D" points="105.953,8.434 116.906,18.32 122.763,1.05 		"/>
		<polygon fill="#EC1C24" points="108.373,1.05 105.953,8.434 122.763,1.05 		"/>
		<polygon fill="#EE4036" points="108.574,1.031 110.417,6.517 122.755,1.031 		"/>
	</g>
</g>
</svg>
